<mxfile host="app.diagrams.net" modified="2024-03-15T20:00:45.842Z" agent="Mozilla/5.0 (Windows NT 10.0; Win64; x64) AppleWebKit/537.36 (KHTML, like Gecko) Chrome/122.0.0.0 Safari/537.36" etag="wjQqJJ-qfCTWYL033Q6a" version="24.0.1" type="device">
  <diagram name="Page-1" id="XLOAxLAL7RXrX3yTvKjN">
    <mxGraphModel dx="918" dy="545" grid="1" gridSize="10" guides="1" tooltips="1" connect="1" arrows="1" fold="1" page="1" pageScale="1" pageWidth="850" pageHeight="1100" math="0" shadow="0">
      <root>
        <mxCell id="0" />
        <mxCell id="1" parent="0" />
        <mxCell id="Zte2_cKlHu1lZIcFy8q5-2" value="" style="rounded=0;whiteSpace=wrap;html=1;align=left;" parent="1" vertex="1">
          <mxGeometry x="30" y="100" width="230" height="370" as="geometry" />
        </mxCell>
        <mxCell id="Zte2_cKlHu1lZIcFy8q5-11" value="" style="edgeStyle=orthogonalEdgeStyle;rounded=0;orthogonalLoop=1;jettySize=auto;html=1;" parent="1" source="Zte2_cKlHu1lZIcFy8q5-1" target="Zte2_cKlHu1lZIcFy8q5-6" edge="1">
          <mxGeometry relative="1" as="geometry" />
        </mxCell>
        <mxCell id="haOe7HPulcGt2h-m_nZB-1" value="" style="edgeStyle=orthogonalEdgeStyle;rounded=0;orthogonalLoop=1;jettySize=auto;html=1;" edge="1" parent="1" source="Zte2_cKlHu1lZIcFy8q5-1" target="Zte2_cKlHu1lZIcFy8q5-6">
          <mxGeometry relative="1" as="geometry" />
        </mxCell>
        <mxCell id="Zte2_cKlHu1lZIcFy8q5-1" value="&lt;font color=&quot;#5226ff&quot;&gt;Tenant A&lt;/font&gt;" style="shape=umlActor;verticalLabelPosition=bottom;verticalAlign=top;html=1;outlineConnect=0;fillColor=#0000FF;" parent="1" vertex="1">
          <mxGeometry x="55" y="120" width="30" height="60" as="geometry" />
        </mxCell>
        <mxCell id="Zte2_cKlHu1lZIcFy8q5-12" value="" style="edgeStyle=orthogonalEdgeStyle;rounded=0;orthogonalLoop=1;jettySize=auto;html=1;" parent="1" source="Zte2_cKlHu1lZIcFy8q5-4" target="Zte2_cKlHu1lZIcFy8q5-6" edge="1">
          <mxGeometry relative="1" as="geometry" />
        </mxCell>
        <mxCell id="Zte2_cKlHu1lZIcFy8q5-4" value="&lt;font color=&quot;#ff3912&quot;&gt;Tenant B&lt;/font&gt;" style="shape=umlActor;verticalLabelPosition=bottom;verticalAlign=top;html=1;outlineConnect=0;fillColor=#d71d1d;" parent="1" vertex="1">
          <mxGeometry x="130" y="120" width="30" height="60" as="geometry" />
        </mxCell>
        <mxCell id="Zte2_cKlHu1lZIcFy8q5-13" value="" style="edgeStyle=orthogonalEdgeStyle;rounded=0;orthogonalLoop=1;jettySize=auto;html=1;" parent="1" source="Zte2_cKlHu1lZIcFy8q5-5" target="Zte2_cKlHu1lZIcFy8q5-6" edge="1">
          <mxGeometry relative="1" as="geometry" />
        </mxCell>
        <mxCell id="Zte2_cKlHu1lZIcFy8q5-5" value="&lt;font color=&quot;#19ff29&quot;&gt;Tenant C&lt;/font&gt;" style="shape=umlActor;verticalLabelPosition=bottom;verticalAlign=top;html=1;outlineConnect=0;fillColor=#68d71d;" parent="1" vertex="1">
          <mxGeometry x="195" y="120" width="30" height="60" as="geometry" />
        </mxCell>
        <mxCell id="Zte2_cKlHu1lZIcFy8q5-6" value="Application" style="shape=process;whiteSpace=wrap;html=1;backgroundOutline=1;" parent="1" vertex="1">
          <mxGeometry x="40" y="250" width="210" height="60" as="geometry" />
        </mxCell>
        <mxCell id="Zte2_cKlHu1lZIcFy8q5-15" value="" style="edgeStyle=orthogonalEdgeStyle;rounded=0;orthogonalLoop=1;jettySize=auto;html=1;" parent="1" source="Zte2_cKlHu1lZIcFy8q5-7" target="Zte2_cKlHu1lZIcFy8q5-6" edge="1">
          <mxGeometry relative="1" as="geometry" />
        </mxCell>
        <mxCell id="Zte2_cKlHu1lZIcFy8q5-7" value="DB-A" style="shape=datastore;whiteSpace=wrap;html=1;fontColor=#104ee0;" parent="1" vertex="1">
          <mxGeometry x="40" y="390" width="60" height="60" as="geometry" />
        </mxCell>
        <mxCell id="Zte2_cKlHu1lZIcFy8q5-16" value="" style="edgeStyle=orthogonalEdgeStyle;rounded=0;orthogonalLoop=1;jettySize=auto;html=1;" parent="1" source="Zte2_cKlHu1lZIcFy8q5-8" target="Zte2_cKlHu1lZIcFy8q5-6" edge="1">
          <mxGeometry relative="1" as="geometry" />
        </mxCell>
        <mxCell id="Zte2_cKlHu1lZIcFy8q5-8" value="DB-B" style="shape=datastore;whiteSpace=wrap;html=1;fontColor=#e50b0b;" parent="1" vertex="1">
          <mxGeometry x="115" y="390" width="60" height="60" as="geometry" />
        </mxCell>
        <mxCell id="Zte2_cKlHu1lZIcFy8q5-18" value="" style="edgeStyle=orthogonalEdgeStyle;rounded=0;orthogonalLoop=1;jettySize=auto;html=1;" parent="1" source="Zte2_cKlHu1lZIcFy8q5-9" target="Zte2_cKlHu1lZIcFy8q5-6" edge="1">
          <mxGeometry relative="1" as="geometry" />
        </mxCell>
        <mxCell id="Zte2_cKlHu1lZIcFy8q5-9" value="DB-C" style="shape=datastore;whiteSpace=wrap;html=1;fontColor=#35FF1F;" parent="1" vertex="1">
          <mxGeometry x="190" y="390" width="60" height="60" as="geometry" />
        </mxCell>
        <mxCell id="Zte2_cKlHu1lZIcFy8q5-19" value="" style="rounded=0;whiteSpace=wrap;html=1;" parent="1" vertex="1">
          <mxGeometry x="300" y="100" width="230" height="370" as="geometry" />
        </mxCell>
        <mxCell id="Zte2_cKlHu1lZIcFy8q5-20" value="" style="edgeStyle=orthogonalEdgeStyle;rounded=0;orthogonalLoop=1;jettySize=auto;html=1;" parent="1" source="Zte2_cKlHu1lZIcFy8q5-21" target="Zte2_cKlHu1lZIcFy8q5-26" edge="1">
          <mxGeometry relative="1" as="geometry" />
        </mxCell>
        <mxCell id="haOe7HPulcGt2h-m_nZB-4" value="" style="edgeStyle=orthogonalEdgeStyle;rounded=0;orthogonalLoop=1;jettySize=auto;html=1;" edge="1" parent="1" source="Zte2_cKlHu1lZIcFy8q5-21" target="Zte2_cKlHu1lZIcFy8q5-26">
          <mxGeometry relative="1" as="geometry" />
        </mxCell>
        <mxCell id="Zte2_cKlHu1lZIcFy8q5-21" value="&lt;font color=&quot;#124cd3&quot;&gt;Tenant A&lt;/font&gt;" style="shape=umlActor;verticalLabelPosition=bottom;verticalAlign=top;html=1;outlineConnect=0;fillColor=#0000FF;" parent="1" vertex="1">
          <mxGeometry x="325" y="120" width="30" height="60" as="geometry" />
        </mxCell>
        <mxCell id="Zte2_cKlHu1lZIcFy8q5-22" value="" style="edgeStyle=orthogonalEdgeStyle;rounded=0;orthogonalLoop=1;jettySize=auto;html=1;" parent="1" source="Zte2_cKlHu1lZIcFy8q5-23" target="Zte2_cKlHu1lZIcFy8q5-26" edge="1">
          <mxGeometry relative="1" as="geometry" />
        </mxCell>
        <mxCell id="Zte2_cKlHu1lZIcFy8q5-23" value="&lt;font color=&quot;#db0a0a&quot;&gt;Tenant B&lt;/font&gt;" style="shape=umlActor;verticalLabelPosition=bottom;verticalAlign=top;html=1;outlineConnect=0;fillColor=#d71d1d;" parent="1" vertex="1">
          <mxGeometry x="400" y="120" width="30" height="60" as="geometry" />
        </mxCell>
        <mxCell id="Zte2_cKlHu1lZIcFy8q5-24" value="" style="edgeStyle=orthogonalEdgeStyle;rounded=0;orthogonalLoop=1;jettySize=auto;html=1;" parent="1" source="Zte2_cKlHu1lZIcFy8q5-25" target="Zte2_cKlHu1lZIcFy8q5-26" edge="1">
          <mxGeometry relative="1" as="geometry" />
        </mxCell>
        <mxCell id="haOe7HPulcGt2h-m_nZB-2" value="" style="edgeStyle=orthogonalEdgeStyle;rounded=0;orthogonalLoop=1;jettySize=auto;html=1;" edge="1" parent="1" source="Zte2_cKlHu1lZIcFy8q5-25" target="Zte2_cKlHu1lZIcFy8q5-26">
          <mxGeometry relative="1" as="geometry" />
        </mxCell>
        <mxCell id="Zte2_cKlHu1lZIcFy8q5-25" value="&lt;font color=&quot;#5cc516&quot;&gt;Tenant C&lt;/font&gt;" style="shape=umlActor;verticalLabelPosition=bottom;verticalAlign=top;html=1;outlineConnect=0;fillColor=#68d71d;" parent="1" vertex="1">
          <mxGeometry x="465" y="120" width="30" height="60" as="geometry" />
        </mxCell>
        <mxCell id="Zte2_cKlHu1lZIcFy8q5-26" value="Application" style="shape=process;whiteSpace=wrap;html=1;backgroundOutline=1;" parent="1" vertex="1">
          <mxGeometry x="310" y="250" width="210" height="60" as="geometry" />
        </mxCell>
        <mxCell id="Zte2_cKlHu1lZIcFy8q5-29" value="" style="edgeStyle=orthogonalEdgeStyle;rounded=0;orthogonalLoop=1;jettySize=auto;html=1;" parent="1" source="Zte2_cKlHu1lZIcFy8q5-30" target="Zte2_cKlHu1lZIcFy8q5-26" edge="1">
          <mxGeometry relative="1" as="geometry" />
        </mxCell>
        <mxCell id="Zte2_cKlHu1lZIcFy8q5-30" value="DB" style="shape=datastore;whiteSpace=wrap;html=1;" parent="1" vertex="1">
          <mxGeometry x="385" y="390" width="60" height="60" as="geometry" />
        </mxCell>
        <mxCell id="Zte2_cKlHu1lZIcFy8q5-36" value="" style="rounded=0;whiteSpace=wrap;html=1;" parent="1" vertex="1">
          <mxGeometry x="570" y="100" width="230" height="370" as="geometry" />
        </mxCell>
        <mxCell id="Zte2_cKlHu1lZIcFy8q5-37" value="" style="edgeStyle=orthogonalEdgeStyle;rounded=0;orthogonalLoop=1;jettySize=auto;html=1;" parent="1" source="Zte2_cKlHu1lZIcFy8q5-38" target="Zte2_cKlHu1lZIcFy8q5-43" edge="1">
          <mxGeometry relative="1" as="geometry" />
        </mxCell>
        <mxCell id="haOe7HPulcGt2h-m_nZB-3" value="" style="edgeStyle=orthogonalEdgeStyle;rounded=0;orthogonalLoop=1;jettySize=auto;html=1;" edge="1" parent="1" source="Zte2_cKlHu1lZIcFy8q5-38" target="Zte2_cKlHu1lZIcFy8q5-43">
          <mxGeometry relative="1" as="geometry" />
        </mxCell>
        <mxCell id="haOe7HPulcGt2h-m_nZB-8" value="" style="edgeStyle=orthogonalEdgeStyle;rounded=0;orthogonalLoop=1;jettySize=auto;html=1;" edge="1" parent="1" source="Zte2_cKlHu1lZIcFy8q5-38" target="Zte2_cKlHu1lZIcFy8q5-43">
          <mxGeometry relative="1" as="geometry" />
        </mxCell>
        <mxCell id="Zte2_cKlHu1lZIcFy8q5-38" value="&lt;font color=&quot;#0d47f8&quot;&gt;Tenant A&lt;/font&gt;" style="shape=umlActor;verticalLabelPosition=bottom;verticalAlign=top;html=1;outlineConnect=0;fillColor=#0000FF;" parent="1" vertex="1">
          <mxGeometry x="595" y="120" width="30" height="60" as="geometry" />
        </mxCell>
        <mxCell id="Zte2_cKlHu1lZIcFy8q5-39" value="" style="edgeStyle=orthogonalEdgeStyle;rounded=0;orthogonalLoop=1;jettySize=auto;html=1;" parent="1" source="Zte2_cKlHu1lZIcFy8q5-40" target="Zte2_cKlHu1lZIcFy8q5-43" edge="1">
          <mxGeometry relative="1" as="geometry" />
        </mxCell>
        <mxCell id="Zte2_cKlHu1lZIcFy8q5-40" value="&lt;font color=&quot;#ff3333&quot;&gt;Tenant B&lt;/font&gt;" style="shape=umlActor;verticalLabelPosition=bottom;verticalAlign=top;html=1;outlineConnect=0;fillColor=#d71d1d;" parent="1" vertex="1">
          <mxGeometry x="670" y="120" width="30" height="60" as="geometry" />
        </mxCell>
        <mxCell id="Zte2_cKlHu1lZIcFy8q5-41" value="" style="edgeStyle=orthogonalEdgeStyle;rounded=0;orthogonalLoop=1;jettySize=auto;html=1;" parent="1" source="Zte2_cKlHu1lZIcFy8q5-42" target="Zte2_cKlHu1lZIcFy8q5-43" edge="1">
          <mxGeometry relative="1" as="geometry" />
        </mxCell>
        <mxCell id="haOe7HPulcGt2h-m_nZB-9" value="" style="edgeStyle=orthogonalEdgeStyle;rounded=0;orthogonalLoop=1;jettySize=auto;html=1;" edge="1" parent="1" source="Zte2_cKlHu1lZIcFy8q5-42" target="Zte2_cKlHu1lZIcFy8q5-43">
          <mxGeometry relative="1" as="geometry" />
        </mxCell>
        <mxCell id="Zte2_cKlHu1lZIcFy8q5-42" value="&lt;font color=&quot;#1a16e3&quot;&gt;Tenant C&lt;/font&gt;" style="shape=umlActor;verticalLabelPosition=bottom;verticalAlign=top;html=1;outlineConnect=0;fillColor=#68d71d;" parent="1" vertex="1">
          <mxGeometry x="735" y="120" width="30" height="60" as="geometry" />
        </mxCell>
        <mxCell id="Zte2_cKlHu1lZIcFy8q5-43" value="Application" style="shape=process;whiteSpace=wrap;html=1;backgroundOutline=1;" parent="1" vertex="1">
          <mxGeometry x="580" y="250" width="210" height="60" as="geometry" />
        </mxCell>
        <mxCell id="Zte2_cKlHu1lZIcFy8q5-46" value="" style="edgeStyle=orthogonalEdgeStyle;rounded=0;orthogonalLoop=1;jettySize=auto;html=1;" parent="1" source="Zte2_cKlHu1lZIcFy8q5-47" target="Zte2_cKlHu1lZIcFy8q5-43" edge="1">
          <mxGeometry relative="1" as="geometry" />
        </mxCell>
        <mxCell id="Zte2_cKlHu1lZIcFy8q5-47" value="" style="shape=datastore;whiteSpace=wrap;html=1;" parent="1" vertex="1">
          <mxGeometry x="580" y="340" width="210" height="110" as="geometry" />
        </mxCell>
        <mxCell id="Zte2_cKlHu1lZIcFy8q5-50" value="" style="shape=table;startSize=0;container=1;collapsible=0;childLayout=tableLayout;fontSize=16;" parent="1" vertex="1">
          <mxGeometry x="595" y="383" width="45" height="50" as="geometry" />
        </mxCell>
        <mxCell id="Zte2_cKlHu1lZIcFy8q5-51" value="" style="shape=tableRow;horizontal=0;startSize=0;swimlaneHead=0;swimlaneBody=0;strokeColor=inherit;top=0;left=0;bottom=0;right=0;collapsible=0;dropTarget=0;fillColor=none;points=[[0,0.5],[1,0.5]];portConstraint=eastwest;fontSize=16;" parent="Zte2_cKlHu1lZIcFy8q5-50" vertex="1">
          <mxGeometry width="45" height="20" as="geometry" />
        </mxCell>
        <mxCell id="Zte2_cKlHu1lZIcFy8q5-52" value="A" style="shape=partialRectangle;html=1;whiteSpace=wrap;connectable=0;strokeColor=inherit;overflow=hidden;fillColor=none;top=0;left=0;bottom=0;right=0;pointerEvents=1;fontSize=16;fontColor=#1763de;" parent="Zte2_cKlHu1lZIcFy8q5-51" vertex="1">
          <mxGeometry width="15" height="20" as="geometry">
            <mxRectangle width="15" height="20" as="alternateBounds" />
          </mxGeometry>
        </mxCell>
        <mxCell id="Zte2_cKlHu1lZIcFy8q5-53" value="" style="shape=partialRectangle;html=1;whiteSpace=wrap;connectable=0;strokeColor=inherit;overflow=hidden;fillColor=none;top=0;left=0;bottom=0;right=0;pointerEvents=1;fontSize=16;" parent="Zte2_cKlHu1lZIcFy8q5-51" vertex="1">
          <mxGeometry x="15" width="15" height="20" as="geometry">
            <mxRectangle width="15" height="20" as="alternateBounds" />
          </mxGeometry>
        </mxCell>
        <mxCell id="Zte2_cKlHu1lZIcFy8q5-54" value="" style="shape=partialRectangle;html=1;whiteSpace=wrap;connectable=0;strokeColor=inherit;overflow=hidden;fillColor=none;top=0;left=0;bottom=0;right=0;pointerEvents=1;fontSize=16;" parent="Zte2_cKlHu1lZIcFy8q5-51" vertex="1">
          <mxGeometry x="30" width="15" height="20" as="geometry">
            <mxRectangle width="15" height="20" as="alternateBounds" />
          </mxGeometry>
        </mxCell>
        <mxCell id="Zte2_cKlHu1lZIcFy8q5-55" value="" style="shape=tableRow;horizontal=0;startSize=0;swimlaneHead=0;swimlaneBody=0;strokeColor=inherit;top=0;left=0;bottom=0;right=0;collapsible=0;dropTarget=0;fillColor=none;points=[[0,0.5],[1,0.5]];portConstraint=eastwest;fontSize=16;" parent="Zte2_cKlHu1lZIcFy8q5-50" vertex="1">
          <mxGeometry y="20" width="45" height="13" as="geometry" />
        </mxCell>
        <mxCell id="Zte2_cKlHu1lZIcFy8q5-56" value="" style="shape=partialRectangle;html=1;whiteSpace=wrap;connectable=0;strokeColor=inherit;overflow=hidden;fillColor=none;top=0;left=0;bottom=0;right=0;pointerEvents=1;fontSize=16;" parent="Zte2_cKlHu1lZIcFy8q5-55" vertex="1">
          <mxGeometry width="15" height="13" as="geometry">
            <mxRectangle width="15" height="13" as="alternateBounds" />
          </mxGeometry>
        </mxCell>
        <mxCell id="Zte2_cKlHu1lZIcFy8q5-57" value="" style="shape=partialRectangle;html=1;whiteSpace=wrap;connectable=0;strokeColor=inherit;overflow=hidden;fillColor=none;top=0;left=0;bottom=0;right=0;pointerEvents=1;fontSize=16;" parent="Zte2_cKlHu1lZIcFy8q5-55" vertex="1">
          <mxGeometry x="15" width="15" height="13" as="geometry">
            <mxRectangle width="15" height="13" as="alternateBounds" />
          </mxGeometry>
        </mxCell>
        <mxCell id="Zte2_cKlHu1lZIcFy8q5-58" value="" style="shape=partialRectangle;html=1;whiteSpace=wrap;connectable=0;strokeColor=inherit;overflow=hidden;fillColor=none;top=0;left=0;bottom=0;right=0;pointerEvents=1;fontSize=16;" parent="Zte2_cKlHu1lZIcFy8q5-55" vertex="1">
          <mxGeometry x="30" width="15" height="13" as="geometry">
            <mxRectangle width="15" height="13" as="alternateBounds" />
          </mxGeometry>
        </mxCell>
        <mxCell id="Zte2_cKlHu1lZIcFy8q5-59" value="" style="shape=tableRow;horizontal=0;startSize=0;swimlaneHead=0;swimlaneBody=0;strokeColor=inherit;top=0;left=0;bottom=0;right=0;collapsible=0;dropTarget=0;fillColor=none;points=[[0,0.5],[1,0.5]];portConstraint=eastwest;fontSize=16;" parent="Zte2_cKlHu1lZIcFy8q5-50" vertex="1">
          <mxGeometry y="33" width="45" height="17" as="geometry" />
        </mxCell>
        <mxCell id="Zte2_cKlHu1lZIcFy8q5-60" value="" style="shape=partialRectangle;html=1;whiteSpace=wrap;connectable=0;strokeColor=inherit;overflow=hidden;fillColor=none;top=0;left=0;bottom=0;right=0;pointerEvents=1;fontSize=16;" parent="Zte2_cKlHu1lZIcFy8q5-59" vertex="1">
          <mxGeometry width="15" height="17" as="geometry">
            <mxRectangle width="15" height="17" as="alternateBounds" />
          </mxGeometry>
        </mxCell>
        <mxCell id="Zte2_cKlHu1lZIcFy8q5-61" value="" style="shape=partialRectangle;html=1;whiteSpace=wrap;connectable=0;strokeColor=inherit;overflow=hidden;fillColor=none;top=0;left=0;bottom=0;right=0;pointerEvents=1;fontSize=16;" parent="Zte2_cKlHu1lZIcFy8q5-59" vertex="1">
          <mxGeometry x="15" width="15" height="17" as="geometry">
            <mxRectangle width="15" height="17" as="alternateBounds" />
          </mxGeometry>
        </mxCell>
        <mxCell id="Zte2_cKlHu1lZIcFy8q5-62" value="" style="shape=partialRectangle;html=1;whiteSpace=wrap;connectable=0;strokeColor=inherit;overflow=hidden;fillColor=none;top=0;left=0;bottom=0;right=0;pointerEvents=1;fontSize=16;" parent="Zte2_cKlHu1lZIcFy8q5-59" vertex="1">
          <mxGeometry x="30" width="15" height="17" as="geometry">
            <mxRectangle width="15" height="17" as="alternateBounds" />
          </mxGeometry>
        </mxCell>
        <mxCell id="haOe7HPulcGt2h-m_nZB-5" value="Database per tenant" style="rounded=0;whiteSpace=wrap;html=1;" vertex="1" parent="1">
          <mxGeometry x="30" y="60" width="230" height="30" as="geometry" />
        </mxCell>
        <mxCell id="haOe7HPulcGt2h-m_nZB-6" value="Shared database, shared schema" style="rounded=0;whiteSpace=wrap;html=1;" vertex="1" parent="1">
          <mxGeometry x="300" y="60" width="230" height="30" as="geometry" />
        </mxCell>
        <mxCell id="haOe7HPulcGt2h-m_nZB-7" value="Shared database, seperate schema" style="rounded=0;whiteSpace=wrap;html=1;" vertex="1" parent="1">
          <mxGeometry x="570" y="60" width="230" height="30" as="geometry" />
        </mxCell>
        <mxCell id="haOe7HPulcGt2h-m_nZB-23" value="" style="shape=table;startSize=0;container=1;collapsible=0;childLayout=tableLayout;fontSize=16;align=left;" vertex="1" parent="1">
          <mxGeometry x="662.5" y="383" width="45" height="50" as="geometry" />
        </mxCell>
        <mxCell id="haOe7HPulcGt2h-m_nZB-24" value="" style="shape=tableRow;horizontal=0;startSize=0;swimlaneHead=0;swimlaneBody=0;strokeColor=inherit;top=0;left=0;bottom=0;right=0;collapsible=0;dropTarget=0;fillColor=none;points=[[0,0.5],[1,0.5]];portConstraint=eastwest;fontSize=16;" vertex="1" parent="haOe7HPulcGt2h-m_nZB-23">
          <mxGeometry width="45" height="20" as="geometry" />
        </mxCell>
        <mxCell id="haOe7HPulcGt2h-m_nZB-25" value="B" style="shape=partialRectangle;html=1;whiteSpace=wrap;connectable=0;strokeColor=inherit;overflow=hidden;fillColor=none;top=0;left=0;bottom=0;right=0;pointerEvents=1;fontSize=16;fontColor=#d01616;" vertex="1" parent="haOe7HPulcGt2h-m_nZB-24">
          <mxGeometry width="15" height="20" as="geometry">
            <mxRectangle width="15" height="20" as="alternateBounds" />
          </mxGeometry>
        </mxCell>
        <mxCell id="haOe7HPulcGt2h-m_nZB-26" value="" style="shape=partialRectangle;html=1;whiteSpace=wrap;connectable=0;strokeColor=inherit;overflow=hidden;fillColor=none;top=0;left=0;bottom=0;right=0;pointerEvents=1;fontSize=16;" vertex="1" parent="haOe7HPulcGt2h-m_nZB-24">
          <mxGeometry x="15" width="15" height="20" as="geometry">
            <mxRectangle width="15" height="20" as="alternateBounds" />
          </mxGeometry>
        </mxCell>
        <mxCell id="haOe7HPulcGt2h-m_nZB-27" value="" style="shape=partialRectangle;html=1;whiteSpace=wrap;connectable=0;strokeColor=inherit;overflow=hidden;fillColor=none;top=0;left=0;bottom=0;right=0;pointerEvents=1;fontSize=16;" vertex="1" parent="haOe7HPulcGt2h-m_nZB-24">
          <mxGeometry x="30" width="15" height="20" as="geometry">
            <mxRectangle width="15" height="20" as="alternateBounds" />
          </mxGeometry>
        </mxCell>
        <mxCell id="haOe7HPulcGt2h-m_nZB-28" value="" style="shape=tableRow;horizontal=0;startSize=0;swimlaneHead=0;swimlaneBody=0;strokeColor=inherit;top=0;left=0;bottom=0;right=0;collapsible=0;dropTarget=0;fillColor=none;points=[[0,0.5],[1,0.5]];portConstraint=eastwest;fontSize=16;" vertex="1" parent="haOe7HPulcGt2h-m_nZB-23">
          <mxGeometry y="20" width="45" height="13" as="geometry" />
        </mxCell>
        <mxCell id="haOe7HPulcGt2h-m_nZB-29" value="" style="shape=partialRectangle;html=1;whiteSpace=wrap;connectable=0;strokeColor=inherit;overflow=hidden;fillColor=none;top=0;left=0;bottom=0;right=0;pointerEvents=1;fontSize=16;" vertex="1" parent="haOe7HPulcGt2h-m_nZB-28">
          <mxGeometry width="15" height="13" as="geometry">
            <mxRectangle width="15" height="13" as="alternateBounds" />
          </mxGeometry>
        </mxCell>
        <mxCell id="haOe7HPulcGt2h-m_nZB-30" value="" style="shape=partialRectangle;html=1;whiteSpace=wrap;connectable=0;strokeColor=inherit;overflow=hidden;fillColor=none;top=0;left=0;bottom=0;right=0;pointerEvents=1;fontSize=16;" vertex="1" parent="haOe7HPulcGt2h-m_nZB-28">
          <mxGeometry x="15" width="15" height="13" as="geometry">
            <mxRectangle width="15" height="13" as="alternateBounds" />
          </mxGeometry>
        </mxCell>
        <mxCell id="haOe7HPulcGt2h-m_nZB-31" value="" style="shape=partialRectangle;html=1;whiteSpace=wrap;connectable=0;strokeColor=inherit;overflow=hidden;fillColor=none;top=0;left=0;bottom=0;right=0;pointerEvents=1;fontSize=16;" vertex="1" parent="haOe7HPulcGt2h-m_nZB-28">
          <mxGeometry x="30" width="15" height="13" as="geometry">
            <mxRectangle width="15" height="13" as="alternateBounds" />
          </mxGeometry>
        </mxCell>
        <mxCell id="haOe7HPulcGt2h-m_nZB-32" value="" style="shape=tableRow;horizontal=0;startSize=0;swimlaneHead=0;swimlaneBody=0;strokeColor=inherit;top=0;left=0;bottom=0;right=0;collapsible=0;dropTarget=0;fillColor=none;points=[[0,0.5],[1,0.5]];portConstraint=eastwest;fontSize=16;" vertex="1" parent="haOe7HPulcGt2h-m_nZB-23">
          <mxGeometry y="33" width="45" height="17" as="geometry" />
        </mxCell>
        <mxCell id="haOe7HPulcGt2h-m_nZB-33" value="" style="shape=partialRectangle;html=1;whiteSpace=wrap;connectable=0;strokeColor=inherit;overflow=hidden;fillColor=none;top=0;left=0;bottom=0;right=0;pointerEvents=1;fontSize=16;" vertex="1" parent="haOe7HPulcGt2h-m_nZB-32">
          <mxGeometry width="15" height="17" as="geometry">
            <mxRectangle width="15" height="17" as="alternateBounds" />
          </mxGeometry>
        </mxCell>
        <mxCell id="haOe7HPulcGt2h-m_nZB-34" value="" style="shape=partialRectangle;html=1;whiteSpace=wrap;connectable=0;strokeColor=inherit;overflow=hidden;fillColor=none;top=0;left=0;bottom=0;right=0;pointerEvents=1;fontSize=16;" vertex="1" parent="haOe7HPulcGt2h-m_nZB-32">
          <mxGeometry x="15" width="15" height="17" as="geometry">
            <mxRectangle width="15" height="17" as="alternateBounds" />
          </mxGeometry>
        </mxCell>
        <mxCell id="haOe7HPulcGt2h-m_nZB-35" value="" style="shape=partialRectangle;html=1;whiteSpace=wrap;connectable=0;strokeColor=inherit;overflow=hidden;fillColor=none;top=0;left=0;bottom=0;right=0;pointerEvents=1;fontSize=16;" vertex="1" parent="haOe7HPulcGt2h-m_nZB-32">
          <mxGeometry x="30" width="15" height="17" as="geometry">
            <mxRectangle width="15" height="17" as="alternateBounds" />
          </mxGeometry>
        </mxCell>
        <mxCell id="haOe7HPulcGt2h-m_nZB-36" value="" style="shape=table;startSize=0;container=1;collapsible=0;childLayout=tableLayout;fontSize=16;" vertex="1" parent="1">
          <mxGeometry x="727.5" y="383" width="45" height="50" as="geometry" />
        </mxCell>
        <mxCell id="haOe7HPulcGt2h-m_nZB-37" value="" style="shape=tableRow;horizontal=0;startSize=0;swimlaneHead=0;swimlaneBody=0;strokeColor=inherit;top=0;left=0;bottom=0;right=0;collapsible=0;dropTarget=0;fillColor=none;points=[[0,0.5],[1,0.5]];portConstraint=eastwest;fontSize=16;" vertex="1" parent="haOe7HPulcGt2h-m_nZB-36">
          <mxGeometry width="45" height="20" as="geometry" />
        </mxCell>
        <mxCell id="haOe7HPulcGt2h-m_nZB-38" value="C" style="shape=partialRectangle;html=1;whiteSpace=wrap;connectable=0;strokeColor=inherit;overflow=hidden;fillColor=none;top=0;left=0;bottom=0;right=0;pointerEvents=1;fontSize=16;fontColor=#48df11;" vertex="1" parent="haOe7HPulcGt2h-m_nZB-37">
          <mxGeometry width="15" height="20" as="geometry">
            <mxRectangle width="15" height="20" as="alternateBounds" />
          </mxGeometry>
        </mxCell>
        <mxCell id="haOe7HPulcGt2h-m_nZB-39" value="" style="shape=partialRectangle;html=1;whiteSpace=wrap;connectable=0;strokeColor=inherit;overflow=hidden;fillColor=none;top=0;left=0;bottom=0;right=0;pointerEvents=1;fontSize=16;" vertex="1" parent="haOe7HPulcGt2h-m_nZB-37">
          <mxGeometry x="15" width="15" height="20" as="geometry">
            <mxRectangle width="15" height="20" as="alternateBounds" />
          </mxGeometry>
        </mxCell>
        <mxCell id="haOe7HPulcGt2h-m_nZB-40" value="" style="shape=partialRectangle;html=1;whiteSpace=wrap;connectable=0;strokeColor=inherit;overflow=hidden;fillColor=none;top=0;left=0;bottom=0;right=0;pointerEvents=1;fontSize=16;" vertex="1" parent="haOe7HPulcGt2h-m_nZB-37">
          <mxGeometry x="30" width="15" height="20" as="geometry">
            <mxRectangle width="15" height="20" as="alternateBounds" />
          </mxGeometry>
        </mxCell>
        <mxCell id="haOe7HPulcGt2h-m_nZB-41" value="" style="shape=tableRow;horizontal=0;startSize=0;swimlaneHead=0;swimlaneBody=0;strokeColor=inherit;top=0;left=0;bottom=0;right=0;collapsible=0;dropTarget=0;fillColor=none;points=[[0,0.5],[1,0.5]];portConstraint=eastwest;fontSize=16;" vertex="1" parent="haOe7HPulcGt2h-m_nZB-36">
          <mxGeometry y="20" width="45" height="13" as="geometry" />
        </mxCell>
        <mxCell id="haOe7HPulcGt2h-m_nZB-42" value="" style="shape=partialRectangle;html=1;whiteSpace=wrap;connectable=0;strokeColor=inherit;overflow=hidden;fillColor=none;top=0;left=0;bottom=0;right=0;pointerEvents=1;fontSize=16;" vertex="1" parent="haOe7HPulcGt2h-m_nZB-41">
          <mxGeometry width="15" height="13" as="geometry">
            <mxRectangle width="15" height="13" as="alternateBounds" />
          </mxGeometry>
        </mxCell>
        <mxCell id="haOe7HPulcGt2h-m_nZB-43" value="" style="shape=partialRectangle;html=1;whiteSpace=wrap;connectable=0;strokeColor=inherit;overflow=hidden;fillColor=none;top=0;left=0;bottom=0;right=0;pointerEvents=1;fontSize=16;" vertex="1" parent="haOe7HPulcGt2h-m_nZB-41">
          <mxGeometry x="15" width="15" height="13" as="geometry">
            <mxRectangle width="15" height="13" as="alternateBounds" />
          </mxGeometry>
        </mxCell>
        <mxCell id="haOe7HPulcGt2h-m_nZB-44" value="" style="shape=partialRectangle;html=1;whiteSpace=wrap;connectable=0;strokeColor=inherit;overflow=hidden;fillColor=none;top=0;left=0;bottom=0;right=0;pointerEvents=1;fontSize=16;" vertex="1" parent="haOe7HPulcGt2h-m_nZB-41">
          <mxGeometry x="30" width="15" height="13" as="geometry">
            <mxRectangle width="15" height="13" as="alternateBounds" />
          </mxGeometry>
        </mxCell>
        <mxCell id="haOe7HPulcGt2h-m_nZB-45" value="" style="shape=tableRow;horizontal=0;startSize=0;swimlaneHead=0;swimlaneBody=0;strokeColor=inherit;top=0;left=0;bottom=0;right=0;collapsible=0;dropTarget=0;fillColor=none;points=[[0,0.5],[1,0.5]];portConstraint=eastwest;fontSize=16;" vertex="1" parent="haOe7HPulcGt2h-m_nZB-36">
          <mxGeometry y="33" width="45" height="17" as="geometry" />
        </mxCell>
        <mxCell id="haOe7HPulcGt2h-m_nZB-46" value="" style="shape=partialRectangle;html=1;whiteSpace=wrap;connectable=0;strokeColor=inherit;overflow=hidden;fillColor=none;top=0;left=0;bottom=0;right=0;pointerEvents=1;fontSize=16;" vertex="1" parent="haOe7HPulcGt2h-m_nZB-45">
          <mxGeometry width="15" height="17" as="geometry">
            <mxRectangle width="15" height="17" as="alternateBounds" />
          </mxGeometry>
        </mxCell>
        <mxCell id="haOe7HPulcGt2h-m_nZB-47" value="" style="shape=partialRectangle;html=1;whiteSpace=wrap;connectable=0;strokeColor=inherit;overflow=hidden;fillColor=none;top=0;left=0;bottom=0;right=0;pointerEvents=1;fontSize=16;" vertex="1" parent="haOe7HPulcGt2h-m_nZB-45">
          <mxGeometry x="15" width="15" height="17" as="geometry">
            <mxRectangle width="15" height="17" as="alternateBounds" />
          </mxGeometry>
        </mxCell>
        <mxCell id="haOe7HPulcGt2h-m_nZB-48" value="" style="shape=partialRectangle;html=1;whiteSpace=wrap;connectable=0;strokeColor=inherit;overflow=hidden;fillColor=none;top=0;left=0;bottom=0;right=0;pointerEvents=1;fontSize=16;" vertex="1" parent="haOe7HPulcGt2h-m_nZB-45">
          <mxGeometry x="30" width="15" height="17" as="geometry">
            <mxRectangle width="15" height="17" as="alternateBounds" />
          </mxGeometry>
        </mxCell>
      </root>
    </mxGraphModel>
  </diagram>
</mxfile>
